<svg width="248" height="29" viewBox="0 0 248 29" fill="none" xmlns="http://www.w3.org/2000/svg">
<path d="M6.36 4.84C6.36 4.30666 6.21333 3.94667 5.92 3.76C5.62667 3.54667 5.28 3.44 4.88 3.44H3.4V13.04H4.88C5.28 13.04 5.62667 12.9333 5.92 12.72C6.21333 12.48 6.36 12.0533 6.36 11.44V4.84ZM6.36 17.2C6.36 16.5867 6.21333 16.1733 5.92 15.96C5.62667 15.72 5.28 15.6 4.88 15.6H3.4V25.2H4.88C5.28 25.2 5.62667 25.1067 5.92 24.92C6.21333 24.7067 6.36 24.3333 6.36 23.8V17.2ZM7.6 14.32C7.89333 14.4267 8.16 14.5867 8.4 14.8C8.61333 14.9867 8.8 15.2267 8.96 15.52C9.12 15.7867 9.2 16.1333 9.2 16.56V24.56C9.2 25.52 8.85333 26.3333 8.16 27C7.49333 27.6667 6.68 28 5.72 28H0.6V14.4V14.32V14.28V14.24V0.639999H5.72C6.2 0.639999 6.65333 0.733332 7.08 0.919998C7.50667 1.08 7.86667 1.32 8.16 1.64C8.48 1.93333 8.73333 2.29333 8.92 2.72C9.10667 3.12 9.2 3.56 9.2 4.04V12.08C9.2 12.5333 9.12 12.8933 8.96 13.16C8.8 13.4267 8.61333 13.6533 8.4 13.84C8.16 14.0533 7.89333 14.2133 7.6 14.32ZM38.1125 25.2C37.9792 25.5733 37.8058 25.9733 37.5925 26.4C37.4058 26.8267 37.2858 27.1067 37.2325 27.24C37.1258 27.4267 36.9525 27.6 36.7125 27.76C36.4992 27.92 36.1658 28 35.7125 28H28.9925V0.639999H30.9525C31.1925 0.639999 31.3925 0.719999 31.5525 0.879999C31.7125 1.04 31.7925 1.24 31.7925 1.48V25.2H38.1125ZM62.3266 0.639999L58.1266 28H56.9266H56.7266C56.3799 28 56.0999 27.92 55.8866 27.76C55.6732 27.5733 55.4999 27.3733 55.3666 27.16C55.2599 26.92 55.1799 26.6933 55.1266 26.48C55.0999 26.2667 55.0866 26.1333 55.0866 26.08L51.1266 0.639999H53.2866C53.3932 0.639999 53.5399 0.706666 53.7266 0.839999C53.9132 0.946666 54.0466 1.22667 54.1266 1.68L56.7266 18.84L59.5266 0.639999H62.3266ZM89.0634 24.72C89.0634 25.6533 88.7301 26.4533 88.0634 27.12C87.4234 27.7867 86.6368 28.1467 85.7034 28.2H83.9434C82.9834 28.2 82.1701 27.8667 81.5034 27.2C80.8368 26.5067 80.5034 25.68 80.5034 24.72V14.36V14.32V3.96C80.5034 3 80.8368 2.18667 81.5034 1.52C82.1701 0.826665 82.9834 0.479999 83.9434 0.479999H85.7034C86.6368 0.533332 87.4234 0.893332 88.0634 1.56C88.7301 2.22667 89.0634 3.02667 89.0634 3.96V8.08C89.0634 8.53333 88.9834 8.88 88.8234 9.12C88.6634 9.33333 88.4901 9.49333 88.3034 9.6C88.1701 9.65333 87.8901 9.78667 87.4634 10C87.0368 10.1867 86.6368 10.36 86.2634 10.52V4.4C86.2634 4 86.1168 3.68 85.8234 3.44C85.5301 3.17333 85.1834 3.04 84.7834 3.04C84.3568 3.04 83.9968 3.17333 83.7034 3.44C83.4368 3.68 83.3034 4 83.3034 4.4V14.32V14.36V24.28C83.3034 24.68 83.4368 25.0267 83.7034 25.32C83.9968 25.6133 84.3568 25.76 84.7834 25.76C85.1834 25.76 85.5301 25.6133 85.8234 25.32C86.1168 25.0267 86.2634 24.68 86.2634 24.28V20.6C86.2634 20.1467 86.3434 19.8133 86.5034 19.6C86.6634 19.36 86.8368 19.1867 87.0234 19.08C87.1568 19.0267 87.4368 18.9067 87.8634 18.72C88.3168 18.5067 88.7168 18.32 89.0634 18.16V24.72ZM117.26 28H114.3L110.54 15.72V28H107.78V1.6C107.78 1.14667 107.886 0.853332 108.1 0.719998C108.34 0.586665 108.54 0.519999 108.7 0.519999H110.54V10.52L114.02 0.599998H116.9L112.54 12.96L117.26 28ZM142.141 6.64C142.008 6.69333 141.715 6.82667 141.261 7.04C140.835 7.22667 140.448 7.4 140.101 7.56V4.44C140.101 4.01333 139.955 3.65333 139.661 3.36C139.368 3.06667 139.008 2.92 138.581 2.92C138.181 2.92 137.835 3.06667 137.541 3.36C137.248 3.65333 137.101 4.01333 137.101 4.44V7.04C137.128 7.36 137.195 7.70667 137.301 8.08C137.381 8.4 137.501 8.78667 137.661 9.24C137.821 9.69333 138.048 10.1867 138.341 10.72L141.661 16.96C141.875 17.4667 142.075 17.96 142.261 18.44C142.421 18.8667 142.568 19.3333 142.701 19.84C142.835 20.3467 142.901 20.8267 142.901 21.28V24.72C142.901 25.68 142.555 26.5067 141.861 27.2C141.195 27.8667 140.381 28.2 139.421 28.2H137.661C136.728 28.1467 135.928 27.8 135.261 27.16C134.621 26.4933 134.301 25.6933 134.301 24.76V21.96C134.301 21.5067 134.381 21.1733 134.541 20.96C134.701 20.72 134.875 20.5467 135.061 20.44C135.195 20.3867 135.475 20.2667 135.901 20.08C136.328 19.8667 136.728 19.68 137.101 19.52V24.28C137.101 24.68 137.248 25.0267 137.541 25.32C137.835 25.5867 138.181 25.72 138.581 25.72C139.008 25.72 139.355 25.5867 139.621 25.32C139.915 25.0267 140.061 24.6667 140.061 24.24V21.16C140.035 20.84 139.968 20.4933 139.861 20.12C139.781 19.8 139.661 19.4133 139.501 18.96C139.368 18.5067 139.155 18.0133 138.861 17.48L135.501 11.2C135.261 10.6933 135.061 10.2 134.901 9.72C134.741 9.29333 134.595 8.82667 134.461 8.32C134.355 7.81333 134.301 7.33333 134.301 6.88V4.08C134.301 3.6 134.395 3.14666 134.581 2.72C134.768 2.29333 135.008 1.92 135.301 1.6C135.621 1.25333 135.995 0.986666 136.421 0.8C136.848 0.586666 137.301 0.479999 137.781 0.479999H139.541C139.995 0.479999 140.421 0.586666 140.821 0.8C141.248 0.986666 141.608 1.25333 141.901 1.6C142.195 1.92 142.435 2.30667 142.621 2.76C142.808 3.18667 142.901 3.62667 142.901 4.08V5.12C142.901 5.57333 142.821 5.92 142.661 6.16C142.501 6.37333 142.328 6.53333 142.141 6.64ZM167.553 4.64C167.499 4.26666 167.326 3.94666 167.033 3.68C166.766 3.41333 166.446 3.28 166.073 3.28H164.593V12.92H166.073C166.446 12.92 166.766 12.8 167.033 12.56C167.326 12.2933 167.499 11.9733 167.553 11.6V4.64ZM166.673 0.639999C167.153 0.639999 167.606 0.733332 168.033 0.919998C168.459 1.08 168.833 1.32 169.153 1.64C169.499 1.96 169.766 2.33333 169.953 2.76C170.166 3.16 170.273 3.6 170.273 4.08V11.16C170.273 12.4933 169.939 13.5867 169.273 14.44C168.606 15.2933 167.593 15.72 166.233 15.72H164.593V28H162.593C162.246 28 162.019 27.9333 161.913 27.8C161.833 27.64 161.793 27.5067 161.793 27.4V0.639999H166.673ZM197.042 28H193.962L191.522 9.12L189.042 28H185.962L190.122 0.639999H191.602C192.216 0.639999 192.602 0.799999 192.762 1.12C192.949 1.41333 193.069 1.74667 193.122 2.12L197.042 28ZM223.751 24.72C223.751 25.6533 223.418 26.4533 222.751 27.12C222.111 27.7867 221.324 28.1467 220.391 28.2H218.631C217.671 28.2 216.858 27.8667 216.191 27.2C215.524 26.5067 215.191 25.68 215.191 24.72V14.36V14.32V3.96C215.191 3 215.524 2.18667 216.191 1.52C216.858 0.826665 217.671 0.479999 218.631 0.479999H220.391C221.324 0.533332 222.111 0.893332 222.751 1.56C223.418 2.22667 223.751 3.02667 223.751 3.96V8.08C223.751 8.53333 223.671 8.88 223.511 9.12C223.351 9.33333 223.178 9.49333 222.991 9.6C222.858 9.65333 222.578 9.78667 222.151 10C221.724 10.1867 221.324 10.36 220.951 10.52V4.4C220.951 4 220.804 3.68 220.511 3.44C220.218 3.17333 219.871 3.04 219.471 3.04C219.044 3.04 218.684 3.17333 218.391 3.44C218.124 3.68 217.991 4 217.991 4.4V14.32V14.36V24.28C217.991 24.68 218.124 25.0267 218.391 25.32C218.684 25.6133 219.044 25.76 219.471 25.76C219.871 25.76 220.218 25.6133 220.511 25.32C220.804 25.0267 220.951 24.68 220.951 24.28V20.6C220.951 20.1467 221.031 19.8133 221.191 19.6C221.351 19.36 221.524 19.1867 221.711 19.08C221.844 19.0267 222.124 18.9067 222.551 18.72C223.004 18.5067 223.404 18.32 223.751 18.16V24.72ZM241.042 25.2H246.922C247.109 25.2 247.176 25.3067 247.122 25.52C247.069 25.7067 246.962 25.9333 246.802 26.2C246.669 26.44 246.509 26.6667 246.322 26.88C246.162 27.0933 246.056 27.2133 246.002 27.24C245.922 27.4267 245.762 27.6 245.522 27.76C245.309 27.92 244.976 28 244.522 28H238.242V1.44C238.242 1.2 238.322 1.01333 238.482 0.879999C238.669 0.719999 238.869 0.639999 239.082 0.639999H246.402C246.589 0.639999 246.656 0.746665 246.602 0.959998C246.549 1.14667 246.442 1.36 246.282 1.6C246.149 1.84 245.989 2.06667 245.802 2.28C245.642 2.49333 245.536 2.61333 245.482 2.64C245.402 2.82667 245.242 3.01333 245.002 3.2C244.789 3.36 244.456 3.44 244.002 3.44H241.722C241.536 3.44 241.376 3.50667 241.242 3.64C241.109 3.74667 241.042 3.89333 241.042 4.08V12.24H245.282C245.469 12.24 245.536 12.3467 245.482 12.56C245.456 12.7467 245.362 12.9733 245.202 13.24C245.069 13.48 244.909 13.7067 244.722 13.92C244.536 14.1333 244.416 14.2533 244.362 14.28C244.282 14.4933 244.122 14.68 243.882 14.84C243.669 15 243.336 15.08 242.882 15.08L241.722 15.04C241.536 15.04 241.376 15.1067 241.242 15.24C241.109 15.3733 241.042 15.5333 241.042 15.72V25.2Z" fill="black"/>
</svg>
