<svg width="22" height="23" viewBox="0 0 22 23" fill="none" xmlns="http://www.w3.org/2000/svg">
<path d="M1.91641 9.20001C1.96195 8.69881 2.21956 8.23116 2.63793 7.89018C3.0563 7.54919 3.60473 7.35991 4.174 7.36001H17.826C18.3953 7.35991 18.9437 7.54919 19.3621 7.89018C19.7804 8.23116 20.038 8.69881 20.0836 9.20001L20.9927 19.2C21.0177 19.4752 20.978 19.752 20.8759 20.0129C20.7739 20.2739 20.6118 20.5134 20.3998 20.7163C20.1879 20.9192 19.9306 21.0811 19.6443 21.1919C19.358 21.3027 19.0489 21.3599 18.7363 21.36H3.26372C2.95115 21.3599 2.64198 21.3027 2.35568 21.1919C2.06938 21.0811 1.81215 20.9192 1.60018 20.7163C1.38822 20.5134 1.22611 20.2739 1.12407 20.0129C1.02202 19.752 0.982252 19.4752 1.00726 19.2L1.91641 9.20001V9.20001Z" stroke="black" stroke-width="2" stroke-linecap="round" stroke-linejoin="round"/>
<path d="M15.5291 10.36V5.36001C15.5291 4.29915 15.0519 3.28173 14.2026 2.53159C13.3533 1.78144 12.2014 1.36002 11.0002 1.36002C9.79913 1.36002 8.64721 1.78144 7.79789 2.53159C6.94858 3.28173 6.47144 4.29915 6.47144 5.36001V10.36" stroke="black" stroke-width="2" stroke-linecap="round" stroke-linejoin="round"/>
</svg>
